<mxfile host="app.diagrams.net" agent="Mozilla/5.0 (X11; Linux x86_64; rv:131.0) Gecko/20100101 Firefox/131.0" version="24.8.6">
  <diagram name="Page-1" id="h49rctNWdkYR5Oe2c-DP">
    <mxGraphModel dx="1995" dy="648" grid="1" gridSize="10" guides="1" tooltips="1" connect="1" arrows="1" fold="1" page="0" pageScale="1" pageWidth="850" pageHeight="1100" math="0" shadow="0">
      <root>
        <mxCell id="0" />
        <mxCell id="1" parent="0" />
        <mxCell id="_W9sl5yZu88mZbKisxAs-98" value="" style="rounded=0;whiteSpace=wrap;html=1;fillColor=none;strokeWidth=4;dashed=1;strokeColor=#82b366;" parent="1" vertex="1">
          <mxGeometry x="-478" y="40" width="370" height="230" as="geometry" />
        </mxCell>
        <mxCell id="_W9sl5yZu88mZbKisxAs-105" style="rounded=0;orthogonalLoop=1;jettySize=auto;html=1;fillColor=#fff2cc;strokeColor=#d6b656;strokeWidth=8;endArrow=none;endFill=0;exitX=0.12;exitY=0.9;exitDx=0;exitDy=0;exitPerimeter=0;entryX=0.88;entryY=0.1;entryDx=0;entryDy=0;entryPerimeter=0;" parent="1" source="_W9sl5yZu88mZbKisxAs-91" target="_W9sl5yZu88mZbKisxAs-93" edge="1">
          <mxGeometry relative="1" as="geometry" />
        </mxCell>
        <mxCell id="_W9sl5yZu88mZbKisxAs-91" value="" style="shape=mxgraph.cisco.routers.router;sketch=0;html=1;pointerEvents=1;dashed=0;fillColor=#036897;strokeColor=#ffffff;strokeWidth=2;verticalLabelPosition=bottom;verticalAlign=top;align=center;outlineConnect=0;" parent="1" vertex="1">
          <mxGeometry x="-254.75" y="300" width="78" height="53" as="geometry" />
        </mxCell>
        <mxCell id="_W9sl5yZu88mZbKisxAs-92" value="" style="shape=mxgraph.cisco.routers.router;sketch=0;html=1;pointerEvents=1;dashed=0;fillColor=#036897;strokeColor=#ffffff;strokeWidth=2;verticalLabelPosition=bottom;verticalAlign=top;align=center;outlineConnect=0;" parent="1" vertex="1">
          <mxGeometry x="-254.75" y="425" width="78" height="53" as="geometry" />
        </mxCell>
        <mxCell id="_W9sl5yZu88mZbKisxAs-93" value="" style="shape=mxgraph.cisco.routers.router;sketch=0;html=1;pointerEvents=1;dashed=0;fillColor=#036897;strokeColor=#ffffff;strokeWidth=2;verticalLabelPosition=bottom;verticalAlign=top;align=center;outlineConnect=0;" parent="1" vertex="1">
          <mxGeometry x="-450" y="425" width="78" height="53" as="geometry" />
        </mxCell>
        <mxCell id="_W9sl5yZu88mZbKisxAs-94" value="" style="shape=mxgraph.cisco.security.firewall;sketch=0;html=1;pointerEvents=1;dashed=0;fillColor=#036897;strokeColor=#ffffff;strokeWidth=2;verticalLabelPosition=bottom;verticalAlign=top;align=center;outlineConnect=0;" parent="1" vertex="1">
          <mxGeometry x="-230.25" y="181.5" width="29" height="67" as="geometry" />
        </mxCell>
        <mxCell id="_W9sl5yZu88mZbKisxAs-104" style="edgeStyle=orthogonalEdgeStyle;rounded=0;orthogonalLoop=1;jettySize=auto;html=1;endArrow=none;endFill=0;strokeWidth=8;fillColor=#d5e8d4;strokeColor=#82b366;exitX=0.5;exitY=0.98;exitDx=0;exitDy=0;exitPerimeter=0;entryX=0.5;entryY=0;entryDx=0;entryDy=0;entryPerimeter=0;" parent="1" source="_W9sl5yZu88mZbKisxAs-95" target="_W9sl5yZu88mZbKisxAs-96" edge="1">
          <mxGeometry relative="1" as="geometry" />
        </mxCell>
        <mxCell id="_W9sl5yZu88mZbKisxAs-95" value="" style="shape=mxgraph.cisco.switches.workgroup_switch;sketch=0;html=1;pointerEvents=1;dashed=0;fillColor=#036897;strokeColor=#ffffff;strokeWidth=2;verticalLabelPosition=bottom;verticalAlign=top;align=center;outlineConnect=0;" parent="1" vertex="1">
          <mxGeometry x="-440.5" y="71.5" width="101" height="50" as="geometry" />
        </mxCell>
        <mxCell id="_W9sl5yZu88mZbKisxAs-96" value="" style="shape=mxgraph.cisco.switches.workgroup_switch;sketch=0;html=1;pointerEvents=1;dashed=0;fillColor=#036897;strokeColor=#ffffff;strokeWidth=2;verticalLabelPosition=bottom;verticalAlign=top;align=center;outlineConnect=0;" parent="1" vertex="1">
          <mxGeometry x="-440.5" y="190" width="101" height="50" as="geometry" />
        </mxCell>
        <mxCell id="_W9sl5yZu88mZbKisxAs-97" value="" style="shape=mxgraph.cisco.routers.router;sketch=0;html=1;pointerEvents=1;dashed=0;fillColor=#036897;strokeColor=#ffffff;strokeWidth=2;verticalLabelPosition=bottom;verticalAlign=top;align=center;outlineConnect=0;" parent="1" vertex="1">
          <mxGeometry x="-254.75" y="70" width="78" height="53" as="geometry" />
        </mxCell>
        <mxCell id="_W9sl5yZu88mZbKisxAs-100" style="rounded=0;orthogonalLoop=1;jettySize=auto;html=1;entryX=0.5;entryY=0;entryDx=0;entryDy=0;entryPerimeter=0;endArrow=none;endFill=0;strokeWidth=4;fillColor=#d5e8d4;strokeColor=#82b366;" parent="1" source="_W9sl5yZu88mZbKisxAs-94" target="_W9sl5yZu88mZbKisxAs-91" edge="1">
          <mxGeometry relative="1" as="geometry" />
        </mxCell>
        <mxCell id="_W9sl5yZu88mZbKisxAs-101" style="edgeStyle=orthogonalEdgeStyle;rounded=0;orthogonalLoop=1;jettySize=auto;html=1;entryX=0;entryY=0.5;entryDx=0;entryDy=0;entryPerimeter=0;endArrow=none;endFill=0;strokeWidth=4;fillColor=#d5e8d4;strokeColor=#82b366;exitX=0.98;exitY=0.5;exitDx=0;exitDy=0;exitPerimeter=0;" parent="1" source="_W9sl5yZu88mZbKisxAs-96" target="_W9sl5yZu88mZbKisxAs-94" edge="1">
          <mxGeometry relative="1" as="geometry">
            <Array as="points">
              <mxPoint x="-230" y="215" />
            </Array>
          </mxGeometry>
        </mxCell>
        <mxCell id="_W9sl5yZu88mZbKisxAs-103" style="edgeStyle=orthogonalEdgeStyle;rounded=0;orthogonalLoop=1;jettySize=auto;html=1;endArrow=none;endFill=0;strokeWidth=4;fillColor=#d5e8d4;strokeColor=#82b366;entryX=0.98;entryY=0.5;entryDx=0;entryDy=0;entryPerimeter=0;" parent="1" source="_W9sl5yZu88mZbKisxAs-97" target="_W9sl5yZu88mZbKisxAs-95" edge="1">
          <mxGeometry relative="1" as="geometry" />
        </mxCell>
        <mxCell id="_W9sl5yZu88mZbKisxAs-106" style="rounded=0;orthogonalLoop=1;jettySize=auto;html=1;entryX=0.5;entryY=0;entryDx=0;entryDy=0;entryPerimeter=0;endArrow=none;endFill=0;fillColor=#fff2cc;strokeColor=#d6b656;strokeWidth=8;" parent="1" source="_W9sl5yZu88mZbKisxAs-91" target="_W9sl5yZu88mZbKisxAs-92" edge="1">
          <mxGeometry relative="1" as="geometry" />
        </mxCell>
        <mxCell id="_W9sl5yZu88mZbKisxAs-107" style="rounded=0;orthogonalLoop=1;jettySize=auto;html=1;entryX=0;entryY=0.5;entryDx=0;entryDy=0;entryPerimeter=0;endArrow=none;endFill=0;fillColor=#fff2cc;strokeColor=#d6b656;strokeWidth=8;" parent="1" source="_W9sl5yZu88mZbKisxAs-93" target="_W9sl5yZu88mZbKisxAs-92" edge="1">
          <mxGeometry relative="1" as="geometry" />
        </mxCell>
        <mxCell id="_W9sl5yZu88mZbKisxAs-109" value="" style="rounded=0;whiteSpace=wrap;html=1;fillColor=none;dashed=1;strokeWidth=4;strokeColor=#b85450;" parent="1" vertex="1">
          <mxGeometry x="-510" y="530" width="380" height="240" as="geometry" />
        </mxCell>
        <mxCell id="_W9sl5yZu88mZbKisxAs-111" style="edgeStyle=orthogonalEdgeStyle;rounded=0;orthogonalLoop=1;jettySize=auto;html=1;endArrow=none;endFill=0;strokeWidth=8;fillColor=#f8cecc;strokeColor=#b85450;entryX=0.98;entryY=0.5;entryDx=0;entryDy=0;entryPerimeter=0;exitX=0;exitY=0.5;exitDx=0;exitDy=0;exitPerimeter=0;" parent="1" source="_W9sl5yZu88mZbKisxAs-112" target="_W9sl5yZu88mZbKisxAs-113" edge="1">
          <mxGeometry relative="1" as="geometry" />
        </mxCell>
        <mxCell id="_W9sl5yZu88mZbKisxAs-112" value="" style="shape=mxgraph.cisco.switches.workgroup_switch;sketch=0;html=1;pointerEvents=1;dashed=0;fillColor=#036897;strokeColor=#ffffff;strokeWidth=2;verticalLabelPosition=bottom;verticalAlign=top;align=center;outlineConnect=0;" parent="1" vertex="1">
          <mxGeometry x="-277.75" y="557" width="101" height="50" as="geometry" />
        </mxCell>
        <mxCell id="_W9sl5yZu88mZbKisxAs-113" value="" style="shape=mxgraph.cisco.switches.workgroup_switch;sketch=0;html=1;pointerEvents=1;dashed=0;fillColor=#036897;strokeColor=#ffffff;strokeWidth=2;verticalLabelPosition=bottom;verticalAlign=top;align=center;outlineConnect=0;" parent="1" vertex="1">
          <mxGeometry x="-461.5" y="557" width="101" height="50" as="geometry" />
        </mxCell>
        <mxCell id="_W9sl5yZu88mZbKisxAs-115" style="edgeStyle=orthogonalEdgeStyle;rounded=0;orthogonalLoop=1;jettySize=auto;html=1;fillColor=#f8cecc;strokeColor=#b85450;strokeWidth=4;endArrow=none;endFill=0;" parent="1" source="_W9sl5yZu88mZbKisxAs-113" target="_W9sl5yZu88mZbKisxAs-119" edge="1">
          <mxGeometry relative="1" as="geometry">
            <mxPoint x="-587.5" y="577" as="targetPoint" />
          </mxGeometry>
        </mxCell>
        <mxCell id="_W9sl5yZu88mZbKisxAs-116" value="&lt;pre&gt;VLAN A&lt;/pre&gt;" style="text;html=1;align=center;verticalAlign=middle;whiteSpace=wrap;rounded=0;" parent="1" vertex="1">
          <mxGeometry x="-410" y="490" width="60" height="30" as="geometry" />
        </mxCell>
        <mxCell id="_W9sl5yZu88mZbKisxAs-117" style="rounded=0;orthogonalLoop=1;jettySize=auto;html=1;exitX=0.5;exitY=1;exitDx=0;exitDy=0;exitPerimeter=0;fillColor=#f8cecc;strokeColor=#b85450;strokeWidth=4;endArrow=none;endFill=0;" parent="1" source="_W9sl5yZu88mZbKisxAs-120" target="_W9sl5yZu88mZbKisxAs-112" edge="1">
          <mxGeometry relative="1" as="geometry">
            <mxPoint x="-587.5" y="330" as="sourcePoint" />
            <mxPoint x="-230" y="650" as="targetPoint" />
            <Array as="points">
              <mxPoint x="-228" y="670" />
            </Array>
          </mxGeometry>
        </mxCell>
        <mxCell id="_W9sl5yZu88mZbKisxAs-118" style="edgeStyle=orthogonalEdgeStyle;rounded=0;orthogonalLoop=1;jettySize=auto;html=1;entryX=0.5;entryY=0;entryDx=0;entryDy=0;entryPerimeter=0;endArrow=none;endFill=0;fillColor=#f8cecc;strokeColor=#b85450;strokeWidth=4;" parent="1" source="_W9sl5yZu88mZbKisxAs-93" target="_W9sl5yZu88mZbKisxAs-113" edge="1">
          <mxGeometry relative="1" as="geometry" />
        </mxCell>
        <mxCell id="_W9sl5yZu88mZbKisxAs-119" value="" style="shape=mxgraph.cisco.computers_and_peripherals.terminal;sketch=0;html=1;pointerEvents=1;dashed=0;fillColor=#036897;strokeColor=#ffffff;strokeWidth=2;verticalLabelPosition=bottom;verticalAlign=top;align=center;outlineConnect=0;" parent="1" vertex="1">
          <mxGeometry x="-441.5" y="666" width="61" height="54" as="geometry" />
        </mxCell>
        <mxCell id="_W9sl5yZu88mZbKisxAs-120" value="" style="shape=mxgraph.cisco.computers_and_peripherals.terminal;sketch=0;html=1;pointerEvents=1;dashed=0;fillColor=#036897;strokeColor=#ffffff;strokeWidth=2;verticalLabelPosition=bottom;verticalAlign=top;align=center;outlineConnect=0;" parent="1" vertex="1">
          <mxGeometry x="-258.5" y="666" width="61" height="54" as="geometry" />
        </mxCell>
        <mxCell id="_W9sl5yZu88mZbKisxAs-121" value="&lt;pre&gt;PC1A&lt;/pre&gt;" style="text;html=1;align=center;verticalAlign=middle;whiteSpace=wrap;rounded=0;" parent="1" vertex="1">
          <mxGeometry x="-259" y="714" width="60" height="30" as="geometry" />
        </mxCell>
        <mxCell id="_W9sl5yZu88mZbKisxAs-122" value="&lt;div align=&quot;center&quot;&gt;&lt;pre&gt;PC2A&lt;br&gt;(DNS)&lt;/pre&gt;&lt;/div&gt;" style="text;html=1;align=center;verticalAlign=middle;whiteSpace=wrap;rounded=0;" parent="1" vertex="1">
          <mxGeometry x="-439" y="722" width="60" height="30" as="geometry" />
        </mxCell>
        <mxCell id="_W9sl5yZu88mZbKisxAs-134" value="" style="rounded=0;whiteSpace=wrap;html=1;fillColor=none;dashed=1;strokeWidth=4;strokeColor=#6c8ebf;" parent="1" vertex="1">
          <mxGeometry x="-120" y="290" width="190" height="480" as="geometry" />
        </mxCell>
        <mxCell id="_W9sl5yZu88mZbKisxAs-135" style="edgeStyle=orthogonalEdgeStyle;rounded=0;orthogonalLoop=1;jettySize=auto;html=1;fillColor=#dae8fc;strokeColor=#6c8ebf;strokeWidth=8;endArrow=none;endFill=0;" parent="1" source="_W9sl5yZu88mZbKisxAs-136" target="_W9sl5yZu88mZbKisxAs-137" edge="1">
          <mxGeometry relative="1" as="geometry" />
        </mxCell>
        <mxCell id="_W9sl5yZu88mZbKisxAs-136" value="" style="shape=mxgraph.cisco.switches.workgroup_switch;sketch=0;html=1;pointerEvents=1;dashed=0;fillColor=#036897;strokeColor=#ffffff;strokeWidth=2;verticalLabelPosition=bottom;verticalAlign=top;align=center;outlineConnect=0;" parent="1" vertex="1">
          <mxGeometry x="-73" y="426.5" width="101" height="50" as="geometry" />
        </mxCell>
        <mxCell id="_W9sl5yZu88mZbKisxAs-137" value="" style="shape=mxgraph.cisco.switches.workgroup_switch;sketch=0;html=1;pointerEvents=1;dashed=0;fillColor=#036897;strokeColor=#ffffff;strokeWidth=2;verticalLabelPosition=bottom;verticalAlign=top;align=center;outlineConnect=0;" parent="1" vertex="1">
          <mxGeometry x="-73" y="560" width="101" height="50" as="geometry" />
        </mxCell>
        <mxCell id="_W9sl5yZu88mZbKisxAs-138" style="edgeStyle=orthogonalEdgeStyle;rounded=0;orthogonalLoop=1;jettySize=auto;html=1;endArrow=none;endFill=0;strokeWidth=4;fillColor=#dae8fc;strokeColor=#6c8ebf;" parent="1" source="_W9sl5yZu88mZbKisxAs-137" target="_W9sl5yZu88mZbKisxAs-141" edge="1">
          <mxGeometry relative="1" as="geometry">
            <mxPoint x="-25" y="674" as="targetPoint" />
          </mxGeometry>
        </mxCell>
        <mxCell id="_W9sl5yZu88mZbKisxAs-139" value="&lt;pre style=&quot;font-size: 14px;&quot;&gt;&lt;font color=&quot;#6c8ebf&quot;&gt;&lt;b&gt;&lt;i&gt;VLAN B&lt;br&gt;&lt;/i&gt;&lt;/b&gt;&lt;/font&gt;&lt;/pre&gt;" style="text;html=1;align=center;verticalAlign=middle;whiteSpace=wrap;rounded=0;strokeWidth=1;" parent="1" vertex="1">
          <mxGeometry x="16" y="261" width="62" height="29" as="geometry" />
        </mxCell>
        <mxCell id="_W9sl5yZu88mZbKisxAs-140" style="edgeStyle=orthogonalEdgeStyle;rounded=0;orthogonalLoop=1;jettySize=auto;html=1;entryX=0.5;entryY=0;entryDx=0;entryDy=0;entryPerimeter=0;exitX=0.5;exitY=1;exitDx=0;exitDy=0;exitPerimeter=0;endArrow=none;endFill=0;strokeWidth=4;fillColor=#dae8fc;strokeColor=#6c8ebf;" parent="1" source="_W9sl5yZu88mZbKisxAs-142" target="_W9sl5yZu88mZbKisxAs-136" edge="1">
          <mxGeometry relative="1" as="geometry">
            <mxPoint x="-25" y="427" as="sourcePoint" />
          </mxGeometry>
        </mxCell>
        <mxCell id="_W9sl5yZu88mZbKisxAs-141" value="" style="shape=mxgraph.cisco.computers_and_peripherals.terminal;sketch=0;html=1;pointerEvents=1;dashed=0;fillColor=#036897;strokeColor=#ffffff;strokeWidth=2;verticalLabelPosition=bottom;verticalAlign=top;align=center;outlineConnect=0;" parent="1" vertex="1">
          <mxGeometry x="-53" y="666" width="61" height="54" as="geometry" />
        </mxCell>
        <mxCell id="_W9sl5yZu88mZbKisxAs-142" value="" style="shape=mxgraph.cisco.computers_and_peripherals.terminal;sketch=0;html=1;pointerEvents=1;dashed=0;fillColor=#036897;strokeColor=#ffffff;strokeWidth=2;verticalLabelPosition=bottom;verticalAlign=top;align=center;outlineConnect=0;" parent="1" vertex="1">
          <mxGeometry x="-53" y="330" width="61" height="54" as="geometry" />
        </mxCell>
        <mxCell id="_W9sl5yZu88mZbKisxAs-143" value="&lt;pre&gt;PC1B&lt;/pre&gt;" style="text;html=1;align=center;verticalAlign=middle;whiteSpace=wrap;rounded=0;" parent="1" vertex="1">
          <mxGeometry x="-96" y="341" width="60" height="30" as="geometry" />
        </mxCell>
        <mxCell id="_W9sl5yZu88mZbKisxAs-144" value="&lt;pre&gt;PC2B&lt;/pre&gt;" style="text;html=1;align=center;verticalAlign=middle;whiteSpace=wrap;rounded=0;" parent="1" vertex="1">
          <mxGeometry x="-97" y="677" width="60" height="30" as="geometry" />
        </mxCell>
        <mxCell id="_W9sl5yZu88mZbKisxAs-145" style="rounded=0;orthogonalLoop=1;jettySize=auto;html=1;entryX=0;entryY=0.5;entryDx=0;entryDy=0;entryPerimeter=0;endArrow=none;endFill=0;strokeWidth=4;fillColor=#dae8fc;strokeColor=#6c8ebf;" parent="1" source="_W9sl5yZu88mZbKisxAs-92" target="_W9sl5yZu88mZbKisxAs-136" edge="1">
          <mxGeometry relative="1" as="geometry" />
        </mxCell>
        <mxCell id="_W9sl5yZu88mZbKisxAs-153" value="&lt;pre style=&quot;font-size: 14px;&quot;&gt;&lt;font style=&quot;font-size: 14px;&quot; color=&quot;#b85450&quot;&gt;VLAN A&lt;/font&gt;&lt;/pre&gt;" style="edgeLabel;html=1;align=center;verticalAlign=middle;resizable=0;points=[];labelBackgroundColor=none;labelBorderColor=none;textShadow=0;fontStyle=3;fontSize=14;" parent="1" vertex="1" connectable="0">
          <mxGeometry x="-152.99999999999955" y="515.0014285714293" as="geometry" />
        </mxCell>
        <mxCell id="_W9sl5yZu88mZbKisxAs-154" value="&lt;pre style=&quot;font-size: 14px;&quot;&gt;&lt;font color=&quot;#82b366&quot;&gt;&lt;b&gt;&lt;i&gt;VLAN B&lt;br&gt;&lt;/i&gt;&lt;/b&gt;&lt;/font&gt;&lt;/pre&gt;" style="text;html=1;align=center;verticalAlign=middle;whiteSpace=wrap;rounded=0;strokeWidth=1;" parent="1" vertex="1">
          <mxGeometry x="-99" y="29" width="62" height="29" as="geometry" />
        </mxCell>
        <mxCell id="_W9sl5yZu88mZbKisxAs-155" value="&lt;pre&gt;R1&lt;/pre&gt;" style="text;html=1;align=center;verticalAlign=middle;whiteSpace=wrap;rounded=0;" parent="1" vertex="1">
          <mxGeometry x="-303" y="311" width="60" height="30" as="geometry" />
        </mxCell>
        <mxCell id="_W9sl5yZu88mZbKisxAs-156" value="&lt;pre&gt;R3&lt;br&gt;&lt;/pre&gt;" style="text;html=1;align=center;verticalAlign=middle;whiteSpace=wrap;rounded=0;" parent="1" vertex="1">
          <mxGeometry x="-439" y="398" width="60" height="30" as="geometry" />
        </mxCell>
        <mxCell id="_W9sl5yZu88mZbKisxAs-157" value="&lt;pre&gt;R2&lt;br&gt;&lt;/pre&gt;" style="text;html=1;align=center;verticalAlign=middle;whiteSpace=wrap;rounded=0;" parent="1" vertex="1">
          <mxGeometry x="-245.75" y="476" width="60" height="30" as="geometry" />
        </mxCell>
        <mxCell id="_W9sl5yZu88mZbKisxAs-158" value="&lt;pre&gt;VLAN C&lt;/pre&gt;" style="edgeLabel;html=1;align=center;verticalAlign=middle;resizable=0;points=[];labelBackgroundColor=none;" parent="1" vertex="1" connectable="0">
          <mxGeometry x="-187" y="286.99588235294095" as="geometry" />
        </mxCell>
        <mxCell id="_W9sl5yZu88mZbKisxAs-159" value="&lt;pre&gt;VLAN B&lt;/pre&gt;" style="edgeLabel;html=1;align=center;verticalAlign=middle;resizable=0;points=[];labelBackgroundColor=none;" parent="1" vertex="1" connectable="0">
          <mxGeometry x="-151.61785888222687" y="439.9972454647997" as="geometry" />
        </mxCell>
        <mxCell id="_W9sl5yZu88mZbKisxAs-162" value="&lt;pre&gt;trunk&lt;/pre&gt;" style="edgeLabel;html=1;align=center;verticalAlign=middle;resizable=0;points=[];labelBackgroundColor=none;" parent="1" vertex="1" connectable="0">
          <mxGeometry x="-46" y="523.4966666666668" as="geometry">
            <mxPoint x="-7" y="-5" as="offset" />
          </mxGeometry>
        </mxCell>
        <mxCell id="_W9sl5yZu88mZbKisxAs-163" value="&lt;pre&gt;trunk&lt;/pre&gt;" style="edgeLabel;html=1;align=center;verticalAlign=middle;resizable=0;points=[];labelBackgroundColor=none;" parent="1" vertex="1" connectable="0">
          <mxGeometry x="-315" y="603.9966666666668" as="geometry">
            <mxPoint x="-7" y="-5" as="offset" />
          </mxGeometry>
        </mxCell>
        <mxCell id="_W9sl5yZu88mZbKisxAs-164" value="&lt;pre&gt;trunk&lt;/pre&gt;" style="edgeLabel;html=1;align=center;verticalAlign=middle;resizable=0;points=[];labelBackgroundColor=none;" parent="1" vertex="1" connectable="0">
          <mxGeometry x="-413" y="162.99666666666678" as="geometry">
            <mxPoint x="-7" y="-5" as="offset" />
          </mxGeometry>
        </mxCell>
        <mxCell id="_W9sl5yZu88mZbKisxAs-165" value="&lt;pre&gt;SW2&lt;/pre&gt;" style="text;html=1;align=center;verticalAlign=middle;whiteSpace=wrap;rounded=0;" parent="1" vertex="1">
          <mxGeometry x="-422" y="237" width="60" height="30" as="geometry" />
        </mxCell>
        <mxCell id="_W9sl5yZu88mZbKisxAs-166" value="&lt;pre&gt;SW1&lt;br&gt;&lt;/pre&gt;" style="text;html=1;align=center;verticalAlign=middle;whiteSpace=wrap;rounded=0;" parent="1" vertex="1">
          <mxGeometry x="-420" y="43" width="60" height="30" as="geometry" />
        </mxCell>
        <mxCell id="_W9sl5yZu88mZbKisxAs-167" value="&lt;pre&gt;SW1&lt;br&gt;&lt;/pre&gt;" style="text;html=1;align=center;verticalAlign=middle;whiteSpace=wrap;rounded=0;" parent="1" vertex="1">
          <mxGeometry x="-187" y="565" width="60" height="30" as="geometry" />
        </mxCell>
        <mxCell id="_W9sl5yZu88mZbKisxAs-168" value="&lt;pre&gt;SW2&lt;br&gt;&lt;/pre&gt;" style="text;html=1;align=center;verticalAlign=middle;whiteSpace=wrap;rounded=0;" parent="1" vertex="1">
          <mxGeometry x="-510" y="565" width="60" height="30" as="geometry" />
        </mxCell>
        <mxCell id="_W9sl5yZu88mZbKisxAs-169" value="&lt;pre&gt;SW1&lt;br&gt;&lt;/pre&gt;" style="text;html=1;align=center;verticalAlign=middle;whiteSpace=wrap;rounded=0;" parent="1" vertex="1">
          <mxGeometry x="16" y="436.5" width="60" height="30" as="geometry" />
        </mxCell>
        <mxCell id="_W9sl5yZu88mZbKisxAs-170" value="&lt;pre&gt;SW2&lt;br&gt;&lt;/pre&gt;" style="text;html=1;align=center;verticalAlign=middle;whiteSpace=wrap;rounded=0;" parent="1" vertex="1">
          <mxGeometry x="17" y="565" width="60" height="30" as="geometry" />
        </mxCell>
        <mxCell id="_W9sl5yZu88mZbKisxAs-172" value="&lt;p style=&quot;line-height: 120%;&quot;&gt;&lt;/p&gt;&lt;pre&gt;ISP&lt;/pre&gt;" style="text;html=1;align=center;verticalAlign=middle;whiteSpace=wrap;rounded=0;" parent="1" vertex="1">
          <mxGeometry x="-245.75" y="43" width="60" height="30" as="geometry" />
        </mxCell>
      </root>
    </mxGraphModel>
  </diagram>
</mxfile>
